<?xml version="1.0" encoding="UTF-8"?>
<svg id="Capa_2" data-name="Capa 2" xmlns="http://www.w3.org/2000/svg" viewBox="0 0 65.13 102.9">
  <defs>
    <style>
      .cls-1 {
        fill: #fff;
      }
    </style>
  </defs>
  <g id="Capa_1-2" data-name="Capa 1">
    <g>
      <g>
        <path class="cls-1" d="M57.48,18.28h-10.56v-2.92c0-1.42-1.34-3.8-2.44-4.7-2.92-2.39-7.19-2.11-10.54-.87-9.57,3.55-14.99,13.96-15.98,23.67h.29c1.11-6.08,7.61-9.4,13.34-9.77,11.49-.74,24.68,3.81,25.47,17.04.9,15.06-9.12,27.27-23.68,30.25-9.57,1.96-22.98-.29-26.43-10.81-1.04-3.16-1.05-6.53-.67-9.81h10.84c-1.65,5.61,1.01,10.05,6.45,11.73,7.64,2.36,17.31-1.33,21.56-8.04,2.73-4.3,4.34-10.64,1.85-15.38-2.84-5.42-12.95-8.22-18.29-5.63-2.57,1.25-3.64,4.06-.83,5.78,4.31,2.64,12.28,3.32,14.29,8.82,2.27,6.23-4.99,10.81-10.2,11.69,1.64-1.44,2.96-3.35,3-5.63.05-2.61-1.4-3.42-3.54-4.32-6.79-2.86-19.9-5.03-22.11-13.13-2.49-9.16,5.21-22.18,11.72-28.28C28.12,1.38,39.53-2.32,48.83,1.61c6.99,2.95,9.67,9.31,8.65,16.67Z"/>
        <path class="cls-1" d="M4.99,94.88c.43,3.5,5.38,4.3,8.06,3.14,2.26-.98,2.79-3.95.45-5.16-3.96-2.05-11.36-.74-12.87-6.96-2.78-11.5,18.82-12.98,18.76-1.57h-4.85c-.45-3.39-4.24-4.29-7.03-3.11-1.62.69-2.64,2.59-1.53,4.18,2.47,3.54,12.27.82,13.91,7.63,1.26,5.21-2.18,8.93-7.15,9.69-5.82.89-12.37-1.25-12.75-7.97.05-.07.18.14.21.14h4.78Z"/>
        <path class="cls-1" d="M39.37,94.3h-12.48l-.15.29c.14,2.28,1.1,4.2,3.57,4.42,1.99.17,3.61-.26,4.71-2h4.21c-1.05,2.96-3.38,5.13-6.53,5.67-5.83,1-10.47-2.73-10.87-8.6-.98-14.36,19.42-13.81,17.54.22ZM34.66,91.17c.33-5.44-8.06-5.4-7.85,0h7.85Z"/>
        <path class="cls-1" d="M64.76,89.31h-4.49c-.58-1.61-1.72-2.29-3.42-2.29-2.9,0-4.58,2.8-1.74,3.89s8.36.4,9.68,4.01c1.53,4.18-2.34,7.51-6.23,7.81-4.3.32-9.46-.65-9.78-5.85h4.56c.28,3.43,7.55,3.5,6.98-.21-.28-1.8-3.95-1.82-5.41-2.15-2.44-.55-4.88-1.41-5.63-4.07-1.14-4.03,2.55-6.55,6.14-6.84,4.31-.35,8.88.67,9.34,5.7Z"/>
        <rect class="cls-1" x="41.94" y="84.03" width="4.71" height="18.12"/>
        <rect class="cls-1" x="41.94" y="77.19" width="4.71" height="3.99"/>
      </g>
      <g>
        <path class="cls-1" d="M57.48,18.28h-10.56v-2.92c0-1.42-1.34-3.8-2.44-4.7-2.92-2.39-7.19-2.11-10.54-.87-9.57,3.55-14.99,13.96-15.98,23.67h.29c1.11-6.08,7.61-9.4,13.34-9.77,11.49-.74,24.68,3.81,25.47,17.04.9,15.06-9.12,27.27-23.68,30.25-9.57,1.96-22.98-.29-26.43-10.81-1.04-3.16-1.05-6.53-.67-9.81h10.84c-1.65,5.61,1.01,10.05,6.45,11.73,7.64,2.36,17.31-1.33,21.56-8.04,2.73-4.3,4.34-10.64,1.85-15.38-2.84-5.42-12.95-8.22-18.29-5.63-2.57,1.25-3.64,4.06-.83,5.78,4.31,2.64,12.28,3.32,14.29,8.82,2.27,6.23-4.99,10.81-10.2,11.69,1.64-1.44,2.96-3.35,3-5.63.05-2.61-1.4-3.42-3.54-4.32-6.79-2.86-19.9-5.03-22.11-13.13-2.49-9.16,5.21-22.18,11.72-28.28C28.12,1.38,39.53-2.32,48.83,1.61c6.99,2.95,9.67,9.31,8.65,16.67Z"/>
        <path class="cls-1" d="M4.99,94.88c.43,3.5,5.38,4.3,8.06,3.14,2.26-.98,2.79-3.95.45-5.16-3.96-2.05-11.36-.74-12.87-6.96-2.78-11.5,18.82-12.98,18.76-1.57h-4.85c-.45-3.39-4.24-4.29-7.03-3.11-1.62.69-2.64,2.59-1.53,4.18,2.47,3.54,12.27.82,13.91,7.63,1.26,5.21-2.18,8.93-7.15,9.69-5.82.89-12.37-1.25-12.75-7.97.05-.07.18.14.21.14h4.78Z"/>
        <path class="cls-1" d="M39.37,94.3h-12.48l-.15.29c.14,2.28,1.1,4.2,3.57,4.42,1.99.17,3.61-.26,4.71-2h4.21c-1.05,2.96-3.38,5.13-6.53,5.67-5.83,1-10.47-2.73-10.87-8.6-.98-14.36,19.42-13.81,17.54.22ZM34.66,91.17c.33-5.44-8.06-5.4-7.85,0h7.85Z"/>
        <path class="cls-1" d="M64.76,89.31h-4.49c-.58-1.61-1.72-2.29-3.42-2.29-2.9,0-4.58,2.8-1.74,3.89s8.36.4,9.68,4.01c1.53,4.18-2.34,7.51-6.23,7.81-4.3.32-9.46-.65-9.78-5.85h4.56c.28,3.43,7.55,3.5,6.98-.21-.28-1.8-3.95-1.82-5.41-2.15-2.44-.55-4.88-1.41-5.63-4.07-1.14-4.03,2.55-6.55,6.14-6.84,4.31-.35,8.88.67,9.34,5.7Z"/>
        <rect class="cls-1" x="41.94" y="84.03" width="4.71" height="18.12"/>
        <rect class="cls-1" x="41.94" y="77.19" width="4.71" height="3.99"/>
      </g>
    </g>
  </g>
</svg>